<?xml version="1.0" encoding="utf-8"?>
<!-- Generator: Adobe Illustrator 22.1.0, SVG Export Plug-In . SVG Version: 6.00 Build 0)  -->
<svg version="1.1" id="Layer_1" xmlns="http://www.w3.org/2000/svg" xmlns:xlink="http://www.w3.org/1999/xlink" x="0px" y="0px"
	 viewBox="0 0 18 18" style="enable-background:new 0 0 18 18;" xml:space="preserve">
<g>
	<path class="st0" d="M11.6,14.8c0-0.2-0.1-0.3-0.2-0.4c-0.1-0.1-0.3-0.2-0.5-0.2c-0.2,0-0.3,0.1-0.5,0.2c-0.1,0.1-0.2,0.2-0.2,0.4
		c0,0.2,0.1,0.3,0.2,0.4c0.1,0.1,0.3,0.2,0.5,0.2c0.2,0,0.4-0.1,0.5-0.2S11.6,15,11.6,14.8z"/>
	<path class="st0" d="M12.4,15.3c0,0.6-0.2,0.8-0.5,0.8c-0.1,0-0.3,0-0.4-0.1v0.9C11.6,17,11.8,17,12,17c0.5,0,0.9-0.2,1.1-0.5
		s0.4-0.8,0.4-1.3v-3.6h-1.1V15.3z"/>
	<path class="st0" d="M13.4,10.1c-0.1-0.1-0.3-0.2-0.5-0.2c-0.2,0-0.3,0.1-0.5,0.2c-0.1,0.1-0.2,0.2-0.2,0.4c0,0.2,0.1,0.3,0.2,0.4
		s0.3,0.2,0.5,0.2c0.2,0,0.3-0.1,0.5-0.2c0.1-0.1,0.2-0.2,0.2-0.4C13.6,10.3,13.5,10.2,13.4,10.1z"/>
	<path class="st0" d="M16.9,13.8c0-0.1-0.1-0.2-0.2-0.3c-0.1-0.1-0.2-0.2-0.3-0.2c-0.1-0.1-0.3-0.1-0.4-0.2c-0.1,0-0.2-0.1-0.2-0.1
		c-0.1,0-0.2-0.1-0.2-0.1c-0.1,0-0.1-0.1-0.2-0.1c0,0-0.1-0.1-0.1-0.2c0,0,0-0.1,0-0.1c0,0,0.1-0.1,0.1-0.1c0,0,0.1,0,0.2-0.1
		s0.1,0,0.2,0c0.2,0,0.3,0,0.5,0.1c0.2,0,0.3,0.1,0.5,0.2v-0.9c-0.2,0-0.3-0.1-0.5-0.1s-0.3,0-0.5,0c-0.2,0-0.4,0-0.6,0.1
		s-0.4,0.1-0.5,0.2s-0.3,0.2-0.4,0.4c-0.1,0.1-0.1,0.3-0.1,0.5c0,0.1,0,0.3,0.1,0.4c0,0.1,0.1,0.2,0.2,0.3c0.1,0.1,0.2,0.2,0.3,0.2
		c0.1,0.1,0.2,0.1,0.4,0.2c0.1,0,0.2,0.1,0.3,0.1s0.2,0.1,0.3,0.1s0.1,0.1,0.2,0.1c0.1,0,0.1,0.1,0.1,0.2c0,0.1-0.1,0.2-0.2,0.2
		c-0.1,0.1-0.3,0.1-0.5,0.1c-0.2,0-0.3,0-0.5-0.1c-0.2-0.1-0.4-0.1-0.5-0.2v0.9c0.3,0.1,0.7,0.2,1.1,0.2c0.2,0,0.4,0,0.6-0.1
		s0.4-0.1,0.5-0.2c0.2-0.1,0.3-0.2,0.4-0.4c0.1-0.2,0.1-0.3,0.1-0.6C16.9,14,16.9,13.9,16.9,13.8z"/>
	<path class="st0" d="M10.9,13.1c0.3-0.5,0.4-1.2,0.4-1.9c0-0.6-0.1-1-0.2-1.5c-0.2-0.4-0.4-0.8-0.7-1.1C10.1,8.2,9.7,8,9.3,7.7
		C8.9,7.4,8.4,7.2,7.8,7C7.4,6.8,7.1,6.6,6.7,6.5C6.4,6.3,6.2,6.1,5.9,6C5.7,5.8,5.5,5.6,5.4,5.5C5.3,5.3,5.2,5.1,5.2,4.8
		c0-0.2,0.1-0.4,0.2-0.6C5.5,4.1,5.7,4,5.9,3.8c0.2-0.1,0.4-0.2,0.7-0.3c0.3-0.1,0.6-0.1,1-0.1c0.3,0,0.5,0,0.8,0.1
		c0.3,0,0.6,0.1,0.9,0.2C9.5,3.8,9.8,3.9,10,4c0.3,0.1,0.5,0.3,0.7,0.4V1.5c-0.5-0.2-1-0.3-1.5-0.4C8.7,1,8.1,1,7.4,1
		C6.6,1,6,1.1,5.3,1.2C4.7,1.4,4.1,1.6,3.6,2C3.1,2.3,2.7,2.7,2.4,3.2C2.1,3.8,2,4.4,2,5.1C2,6,2.3,6.8,2.8,7.5
		c0.5,0.6,1.3,1.2,2.4,1.6C5.6,9.3,6,9.4,6.3,9.6C6.7,9.8,7,10,7.3,10.1c0.3,0.2,0.5,0.4,0.6,0.6c0.2,0.2,0.2,0.5,0.2,0.7
		c0,0.2,0,0.4-0.1,0.6c-0.1,0.2-0.2,0.3-0.4,0.4c-0.2,0.1-0.4,0.2-0.7,0.3c-0.3,0.1-0.6,0.1-1,0.1c-0.7,0-1.3-0.1-2-0.4
		c-0.6-0.2-1.2-0.6-1.8-1.1v3.1c0.5,0.3,1.1,0.4,1.8,0.6c0.7,0.1,1.4,0.2,2.1,0.2c0.7,0,1.4-0.1,2.1-0.2c0.7-0.1,1.2-0.4,1.7-0.7
		C10.3,14.1,10.6,13.6,10.9,13.1z"/>
</g>
</svg>
